<svg xmlns:xlink="http://www.w3.org/1999/xlink" xmlns="http://www.w3.org/2000/svg" height="206.74478141000395" width="1000"><path d="M30.948 143.748c2.271 1.367 3.301-.852 2.24-1.999-14.082-16.663-18.892-39.872-13.514-60.858 4.553-17.779 16.508-33.628 33.182-41.819 17.623-8.652 38.813-7.48 55.443 2.91 8.62 5.382 15.772 12.943 20.883 21.675 1.765 3.017 5.026 3.95 8.469 4.21h40.128c1.605-.146 3.284-1.1 4.226-2.333.719-1.1.911-2.193.836-3.29.011-2.858-1.833-5.824-3.136-8.263-1.233-2.317-2.494-4.628-3.861-6.872a94.64 94.64 0 00-8.55-11.861c-6.338-7.51-13.842-14.04-22.14-19.339C127.5 4.633 106.454-.816 85.503.096c-22.583.983-45.047 9.225-61.344 25.059C9.731 39.17.864 58.3.06 78.38c-.849 21.23 7.316 42.02 22.04 57.368a84.175 84.175 0 008.848 8zm157.999-43.415c.27-3.706-1.342-6.818-5.239-7.27H99.701c-2.89 0-5.24.164-7.509 2.142-1.13.98-2.164 1.985-3.567 2.581-1.433.605-3 .743-4.539.743H45.3c-.944-.016-1.807.257-1.868 1.299-.075 1.214.829 1.862 1.89 2.26l39.243 18.25c3.19 1.183 5.816 4.305 6 7.524l.127 2.148c.15 2.7 1.013 5.433 3.418 6.927.265.167 4.3 2.755 4.31 2.738.035.036 3.268 1.981 3.294 2.02.192.128.411.272.617.406.344.27 1.209.975 1.742 1.558 3.002 3.745 4.3 11.374-2.086 16.183-8.27 5.754-17.713 9.806-27.712 11.418-11.189 1.805-22.754.508-33.296-3.606-15.188-5.935-27.624-17.238-36.48-30.698a20.77 20.77 0 00-.384-.497c-.602-.714-1.93-.858-2.266.244-.22.732.938 2.422 1.316 3.1 1.192 2.134 2.513 4.19 3.89 6.2a94.969 94.969 0 009.162 11.418 98.696 98.696 0 0023.182 18.256c18.578 10.578 40.39 14.959 61.659 12.732 24.185-2.529 47.153-13.769 63.591-31.63 6.967-7.582 12.684-16.258 16.846-25.657a90.278 90.278 0 005.121-15.114 90.579 90.579 0 001.524-7.703c.416-2.644.687-5.3.807-7.972m717.877 18.056h-30.516c-7.585 0-11.763-4.178-11.763-11.763v-6.159h29.88c2.207 0 4.04-.736 5.303-2.137 1.13-1.245 1.91-2.939 1.91-4.763 0-1.84-.78-3.547-1.918-4.807-1.27-1.41-3.104-2.158-5.295-2.158h-29.88V70.559h42.279c2.208 0 4.041-.737 5.305-2.138 1.13-1.245 1.908-2.937 1.908-4.76 0-1.841-.778-3.547-1.916-4.809-1.27-1.41-3.104-2.157-5.297-2.157h-49.208c-2.456 0-4.185.535-5.29 1.638-1.106 1.113-1.642 2.842-1.642 5.3v42.561c0 8.918 2.047 15.35 6.265 19.66 4.203 4.309 10.476 6.401 19.178 6.401h21.624v-.002h9.073c2.208 0 4.041-.738 5.305-2.137 1.13-1.246 1.908-2.94 1.908-4.762 0-1.841-.778-3.547-1.916-4.808-1.27-1.41-3.104-2.157-5.297-2.157zm-74.221-61.697h-30.844c-17.564 0-25.75 7.995-25.75 25.569v23.754c0 16.844 7.667 25.594 23.383 26.238h39.959c.005-.027.005-.308.005-.331v-31.185c0-2.207-.737-4.04-2.136-5.305-1.248-1.13-2.94-1.908-4.763-1.908-1.841 0-3.546.779-4.808 1.915-1.408 1.273-2.156 3.107-2.156 5.298v9.911h-.002v7.74h-23.856c-7.584 0-11.764-4.38-11.764-12.005V82.26c0-7.628 4.157-11.702 11.706-11.702h37.779v-6.99c0-4.95-2.021-6.877-6.753-6.877zm-72.222 41.56c2.716-3.635 4.24-8.658 4.535-14.98.476-6.48-.847-13.05-3.827-17.57-4.744-7.22-13.473-9.01-19.957-9.01h-31.885c-4.824 0-6.942 1.992-6.942 6.764v61.586c0 2.205.738 4.04 2.139 5.304 1.245 1.128 2.937 1.907 4.76 1.907 1.841 0 3.547-.78 4.808-1.915 1.41-1.271 2.159-3.106 2.159-5.296V70.559h25.858c3.246 0 6.17 2.268 7.691 4.482 1.081 1.755 1.693 4.266 1.693 6.888 0 2.612-.537 5.014-1.433 6.948-1.285 2.779-3.32 4.652-5.615 4.652h-9.882c-2.208 0-4.042.744-5.304 2.155-1.131 1.258-1.907 2.962-1.907 4.802 0 1.853.776 3.575 1.915 4.846 1.27 1.42 3.104 2.174 5.296 2.174h9.917c2.295 0 4.328 1.785 5.615 4.563.896 1.934 1.416 3.922 1.416 6.535v6.444c0 2.206.721 4.04 2.094 5.305 1.219 1.128 2.875 1.906 4.659 1.906 1.804 0 3.473-.778 4.71-1.914 1.38-1.272 2.11-3.107 2.11-5.297v-5l-.013.012c.013-4.987-.575-12.625-4.61-17.993l-.968-1.29-.466-.624.47-.63s.97-1.272.964-1.272zm-83.294 8.192c0 7.62-4.154 11.945-11.703 11.945h-12.461c-7.388 0-11.452-4.324-11.452-11.945v-24.37c0-7.425 4.064-11.515 11.452-11.515h12.461c7.55 0 11.703 4.003 11.703 11.272zm-11.703-49.752h-12.276c-17.399 0-25.503 8.001-25.503 25.446v24.552c0 17.353 8.024 25.563 25.254 25.563h12.65c17.354 0 25.44-8.404 25.44-26.18v-24c0-17.404-8.125-25.38-25.565-25.38zm-47.45 0h-49.069c-4.858 0-6.953 1.887-6.953 6.754v29.89a28.169 28.169 0 000 1.644v30.09c0 2.206.736 4.04 2.136 5.305 1.248 1.128 2.939 1.906 4.763 1.906 1.84 0 3.546-.778 4.808-1.914 1.408-1.272 2.154-3.107 2.154-5.297v-6.659h.02v-17.944h29.908c2.207 0 4.043-.736 5.306-2.137 1.128-1.245 1.906-2.939 1.906-4.763 0-1.84-.778-3.547-1.914-4.807-1.271-1.41-3.107-2.158-5.298-2.158h-29.908V70.559h28.844v-.002h13.296c2.206 0 4.039-.737 5.306-2.138 1.126-1.245 1.905-2.938 1.905-4.76 0-1.842-.779-3.548-1.913-4.81-1.274-1.41-3.107-2.157-5.298-2.157zM543.396 70.56c2.207 0 4.042-.737 5.304-2.138 1.128-1.245 1.907-2.937 1.907-4.76 0-1.841-.779-3.547-1.913-4.809-1.272-1.41-3.107-2.157-5.298-2.157H494.19c-2.456 0-4.186.535-5.29 1.638-1.108 1.113-1.643 2.842-1.643 5.3v42.561c0 8.918 2.048 15.35 6.265 19.66 4.203 4.309 10.478 6.401 19.178 6.401h21.625v-.002h9.073c2.207 0 4.042-.738 5.304-2.137 1.128-1.246 1.907-2.94 1.907-4.762 0-1.841-.779-3.547-1.913-4.808-1.272-1.41-3.107-2.157-5.298-2.157H512.88c-7.583 0-11.762-4.178-11.762-11.763v-6.159h29.88c2.206 0 4.04-.736 5.304-2.137 1.128-1.245 1.907-2.939 1.907-4.763 0-1.84-.779-3.547-1.915-4.807-1.27-1.41-3.105-2.158-5.296-2.158h-29.881V70.559zm-67.333 12.194c0-17.782-8.087-26.058-25.445-26.058l-33.886-.003h-33.881c-5.107 0-7.023 2.066-7.023 6.876v61.481c0 2.206.736 4.04 2.138 5.305 1.245 1.128 2.937 1.906 4.76 1.906 1.841 0 3.548-.778 4.809-1.914 1.41-1.272 2.157-3.107 2.157-5.297v-19.476h-.002V70.559h17.782c7.548 0 11.544 4.197 11.544 11.823v42.66c0 2.205.736 4.04 2.138 5.304 1.245 1.128 2.937 1.907 4.761 1.907 1.84 0 3.547-.78 4.807-1.915 1.41-1.271 2.157-3.106 2.157-5.296V70.559h17.72c7.584 0 11.601 4.197 11.601 11.823v42.665c0 2.206.738 4.04 2.138 5.304 1.245 1.128 2.938 1.907 4.761 1.907 1.841 0 3.547-.779 4.808-1.914 1.41-1.272 2.157-3.107 2.157-5.297V105.57h-.001zM350.805 93.53h-35.373V82.382c0-7.626 4.176-11.823 11.763-11.823h23.61zm6.924-36.837h-15.365l-10.557-.003-3.34.003h-.982l-.476.003c-17.358 0-25.441 8.276-25.441 26.058v42.294c0 2.206.737 4.04 2.137 5.304 1.246 1.128 2.938 1.907 4.762 1.907 1.84 0 3.546-.779 4.808-1.914 1.409-1.272 2.156-3.107 2.156-5.297v-6.6h.001v-10.94h35.373v17.547c0 2.205.738 4.04 2.138 5.304 1.245 1.128 2.937 1.907 4.761 1.907 1.84 0 3.547-.78 4.808-1.915 1.41-1.272 2.157-3.106 2.157-5.296v-6.572h.002V63.568c0-4.78-2.074-6.876-6.942-6.876zm-74.238 0h-30.854c-8.806 0-15.157 1.887-19.416 6.144-4.256 4.26-6.329 10.612-6.329 19.425v23.754c0 16.844 7.664 25.594 23.383 26.238h39.976v-31.516c0-2.207-.738-4.04-2.138-5.305-1.246-1.13-2.938-1.908-4.761-1.908-1.841 0-3.547.779-4.808 1.915-1.41 1.273-2.157 3.107-2.157 5.298v17.652h-23.871c-7.584 0-11.761-4.381-11.761-12.006V82.26c0-7.31 3.501-11.702 10.794-11.702h38.702v-6.99c0-4.95-2.034-6.877-6.76-6.877" fill="#fff"/></svg>